<svg xmlns="http://www.w3.org/2000/svg" width="94.1" height="77.683" viewBox="0 0 94.1 77.683">
  <defs>
    <style>
      .cls-1 {
        fill: #fff7ce;
        fill-rule: evenodd;
      }
    </style>
  </defs>
  <path id="Path_4" data-name="Path 4" class="cls-1" d="M35.064,20.96A44.716,44.716,0,0,1,44.716,49.1q0,13.493-7.094,21.514T20.76,78.641A19.3,19.3,0,0,1,6.514,72.71,18.935,18.935,0,0,1,.642,58.988a18.057,18.057,0,0,1,5.117-12.85A15.755,15.755,0,0,1,17.5,40.73,15.735,15.735,0,0,1,26.923,43.4a3.635,3.635,0,0,0,1.744.813,1.291,1.291,0,0,0,1.048-.7,5.969,5.969,0,0,0,.7-3.256q0-10.231-6.863-19.711A39.377,39.377,0,0,0,4.6,6.656V.958Q25.412,8.518,35.064,20.96Zm50.026,0A44.716,44.716,0,0,1,94.742,49.1q0,13.493-7.094,21.514T70.786,78.641A19.306,19.306,0,0,1,56.54,72.71a18.935,18.935,0,0,1-5.872-13.722,18.057,18.057,0,0,1,5.117-12.85A16.4,16.4,0,0,1,76.949,43.4a3.632,3.632,0,0,0,1.746.813,1.29,1.29,0,0,0,1.046-.7,5.969,5.969,0,0,0,.7-3.256q0-10.231-6.861-19.711a39.382,39.382,0,0,0-18.956-13.9V.958Q75.441,8.518,85.091,20.96Z" transform="translate(94.742 78.641) rotate(180)"/>
</svg>
