<svg xmlns="http://www.w3.org/2000/svg" width="96.9" height="79.994" viewBox="0 0 96.9 79.994">
  <defs>
    <style>
      .cls-1 {
        fill: #fff0ac;
        fill-rule: evenodd;
      }
    </style>
  </defs>
  <path id="Path_5" data-name="Path 5" class="cls-1" d="M62.1,21.556a46.046,46.046,0,0,0-9.938,28.98q0,13.895,7.3,22.154t17.364,8.263A19.878,19.878,0,0,0,91.5,74.845a19.5,19.5,0,0,0,6.046-14.13,18.594,18.594,0,0,0-5.269-13.232Q87,41.913,80.178,41.913a16.2,16.2,0,0,0-9.7,2.754,3.743,3.743,0,0,1-1.8.838,1.329,1.329,0,0,1-1.079-.719,6.147,6.147,0,0,1-.719-3.352q0-10.536,7.067-20.3A40.548,40.548,0,0,1,93.471,6.825V.958Q72.035,8.743,62.1,21.556Zm-51.515,0A46.046,46.046,0,0,0,.642,50.535q0,13.895,7.3,22.154t17.364,8.263a19.881,19.881,0,0,0,14.67-6.107,19.5,19.5,0,0,0,6.046-14.13,18.594,18.594,0,0,0-5.269-13.232q-5.269-5.569-12.095-5.569a16.2,16.2,0,0,0-9.7,2.754,3.74,3.74,0,0,1-1.8.838,1.329,1.329,0,0,1-1.077-.719,6.147,6.147,0,0,1-.719-3.352q0-10.536,7.065-20.3A40.554,40.554,0,0,1,41.956,6.825V.958Q20.517,8.743,10.58,21.556Z" transform="translate(97.542 80.952) rotate(180)"/>
</svg>
