<svg xmlns="http://www.w3.org/2000/svg" viewBox="0 0 125 20">
  <defs>
    <style>
      .a {
      isolation: isolate;
      }

      .b {
      fill: #fff5b7;
      }
    </style>
  </defs>
  <g class="a">
    <path class="b" d="M.43,16V14.93l1.45-.21V5.4L.43,5.16v-1H4.16l4.93,6.94.82,1.66V5.4L8.39,5.16v-1h4.35v1l-1.38.24V16H9.58L4.36,8.53l-1-2v8.16l1.6.22V16Z"/>
    <path class="b" d="M15.55,16V14.92l1.28-.21V5.4l-1.27-.24v-1h8.6l.18,2.71H23L22.44,5.3l-3.11-.15V9.38l2,0L21.59,8H23v3.84H21.59l-.23-1.32-2,0V14.8l3.74-.18,1-2.07,1.34.31L24.91,16Z"/>
    <path class="b" d="M27.27,16V14.93l1-.22L32,4.06h2.51L38.3,14.71l1.08.22V16H34.31V14.93l1.28-.22L35,12.8H30.76l-.56,1.92,1.29.21V16Zm5.29-9.45-1.45,5h3.52l-1.54-5-.28-1.14Z"/>
    <path class="b" d="M41.58,16V14.93l1.28-.21V5.4l-1.27-.24v-1H46.9v1l-1.57.24v9.29l3.27-.17,1-2.92,1.52.2-.5,4.2Z"/>
    <path class="b" d="M66.86,16.18a6.54,6.54,0,0,1-2.46-.44,5.08,5.08,0,0,1-2.94-3.12,7.09,7.09,0,0,1-.39-2.39,6.81,6.81,0,0,1,.48-2.63,5.58,5.58,0,0,1,1.33-2,5.77,5.77,0,0,1,2-1.24A7.08,7.08,0,0,1,67.39,4c.43,0,.85,0,1.27.06l1.16.14c.35,0,.67.11,1,.17l.62.13-.18,3H69.52l-.47-2a.83.83,0,0,0-.2-.16,1.27,1.27,0,0,0-.33-.16,3.49,3.49,0,0,0-.5-.11,4.15,4.15,0,0,0-.75,0,3.32,3.32,0,0,0-1.39.29,2.89,2.89,0,0,0-1.07.88,4.68,4.68,0,0,0-.69,1.49,8.31,8.31,0,0,0-.24,2.12,9.78,9.78,0,0,0,.19,2,5.94,5.94,0,0,0,.58,1.68,3.33,3.33,0,0,0,1,1.16,2.39,2.39,0,0,0,1.44.44,4.15,4.15,0,0,0,1.17-.15,1.61,1.61,0,0,0,.76-.41V11.29l-1.53-.18V9.82h4.85v1.29l-.82.15v4.1a4,4,0,0,0-.79.14l-1,.29q-.59.15-1.29.27A9.13,9.13,0,0,1,66.86,16.18Z"/>
    <path class="b" d="M75.25,16V14.93l1.28-.2V5.4L75.3,5.16v-1h2.43l.68,0,.61,0,.64,0h.77a8.47,8.47,0,0,1,2,.2,3.53,3.53,0,0,1,1.34.59,2.18,2.18,0,0,1,.73,1,3.76,3.76,0,0,1,.23,1.36,4,4,0,0,1-.14,1,3.48,3.48,0,0,1-.42,1,3.21,3.21,0,0,1-.72.8,2.83,2.83,0,0,1-1,.5,2,2,0,0,1,.74.54,5.93,5.93,0,0,1,.61.83q.27.47.51,1c.15.34.3.64.44.92a6.44,6.44,0,0,0,.4.72.81.81,0,0,0,.4.34l.66.21V16H83.34q-.18,0-.39-.33a6.64,6.64,0,0,1-.43-.85c-.15-.34-.3-.72-.46-1.13s-.32-.81-.49-1.19a8.92,8.92,0,0,0-.53-1,1.86,1.86,0,0,0-.56-.63H79v3.92l1.38.2V16ZM79,9.75a.84.84,0,0,0,.26,0h1a1.78,1.78,0,0,0,1.43-.62,3,3,0,0,0,.52-1.94,3.21,3.21,0,0,0-.12-.92,1.58,1.58,0,0,0-.39-.68A1.61,1.61,0,0,0,81,5.21a3,3,0,0,0-1-.15H79.6l-.29,0-.2,0-.14,0Z"/>
    <path class="b" d="M87.63,16V14.93l1-.22L92.39,4.06H94.9l3.76,10.65,1.08.22V16H94.67V14.93L96,14.71l-.59-1.91H91.12l-.56,1.92,1.29.21V16Zm5.29-9.45-1.45,5H95l-1.53-5-.28-1.14Z"/>
    <path class="b" d="M107.36,16.18a6.31,6.31,0,0,1-2.43-.44,4.92,4.92,0,0,1-1.77-1.24,5.32,5.32,0,0,1-1.08-1.92,8.05,8.05,0,0,1-.36-2.47,6.53,6.53,0,0,1,.47-2.51,5.65,5.65,0,0,1,3.25-3.18A6.68,6.68,0,0,1,107.87,4a9.16,9.16,0,0,1,1.07.07c.34,0,.65.09,1,.15l.81.16a4.86,4.86,0,0,0,.63.12l-.18,3.11h-1.6l-.47-2a1.2,1.2,0,0,0-.2-.18,1.39,1.39,0,0,0-.3-.16,3.26,3.26,0,0,0-.42-.1,5,5,0,0,0-.6,0,2.62,2.62,0,0,0-2.2,1.18,4.58,4.58,0,0,0-.62,1.48,8.56,8.56,0,0,0-.22,2.08,10.75,10.75,0,0,0,.18,2,5.82,5.82,0,0,0,.55,1.68,3.24,3.24,0,0,0,.94,1.17,2.16,2.16,0,0,0,1.35.44,6.19,6.19,0,0,0,.67,0,2.7,2.7,0,0,0,.49-.12,1,1,0,0,0,.33-.17,1.14,1.14,0,0,0,.23-.2l.71-1.72,1.37.08-.18,2.65a4,4,0,0,0-.68.12l-.78.21c-.28.07-.62.14-1,.2A8.78,8.78,0,0,1,107.36,16.18Z"/>
    <path class="b" d="M114.56,16V14.92l1.28-.21V5.4l-1.26-.24v-1h8.6l.18,2.71H122l-.57-1.52-3.11-.15V9.38l2,0L120.61,8H122v3.84h-1.35l-.23-1.32-2,0V14.8l3.75-.18,1-2.07,1.33.31L123.93,16Z"/>
  </g>
</svg>
