<svg xmlns="http://www.w3.org/2000/svg" viewBox="0 0 300 64.1">
  <defs>
    <style>
      .logo-color-dark {
        fill: #016699;
      }

      .logo-color-light {
        fill: #ffcd05;
      }
    </style>
  </defs>
  <title>logo-text</title>
  <g>
    <g>
      <path class="logo-color-dark" d="M300,46.82V33.28h-8.79V6.91H268.39L237.5,34.17V46.82h34.36v4.52c0,3.88-.65,5.56-1.77,7.09h23c-1.12-1.53-1.85-3.21-1.85-7.09V46.82ZM271.86,33.28H251.78l20.08-17Z"/>
      <path class="logo-color-dark" d="M200.16,49.89V43.52c0-1.7.32-3.3,2.34-3.4L222,39.17c8.54-.41,11.53-2.5,11.53-10.24V18.61c0-7.26-2.09-11.78-13.71-11.78H181.78l-1.7,10.4a17,17,0,0,1,8.07-1.85h22.58c2.91,0,3.79,1,3.79,2.41v2.83c0,2-.57,2.74-3.07,2.82l-21,1.12c-6.85.41-10,2.11-10,10.9v23h51.85l1.86-10.8c-4.36,1.69-5.56,2.26-10.73,2.26Z"/>
      <path class="logo-color-dark" d="M124.66,6.83,122.89,17.3a14.33,14.33,0,0,1,7.26-1.92h21c2.91,0,3.55.48,3.55,3.13V24.8c0,2.67-.64,3.16-3.55,3.16h-9.35a25.78,25.78,0,0,1-8.88-1.38V37.87a26.09,26.09,0,0,1,8.88-1.37h9.35c2.91,0,3.55.49,3.55,3.14v7.11c0,2.65-.64,3.14-3.55,3.14H131.83a17.53,17.53,0,0,1-8.94-2.51l1.85,11h39.19c7.67,0,10.41-3.7,10.41-9.11V40.78c0-6.22-1.46-8.31-12-8.63V32c8.79,0,12-2.26,12-6.61V17c0-7.41-4-10.15-14-10.15Z"/>
      <path class="logo-color-dark" d="M67.41,6.83,65.8,17.47a11.6,11.6,0,0,1,7.34-2.09h9V49.57c0,4.92-.65,6.85-1.62,8.86h22.92c-1-2-1.63-3.94-1.63-8.86V15.38h9a11.64,11.64,0,0,1,7.34,2.09L116.45,6.83Z"/>
    </g>
    <g>
      <path class="logo-color-dark" d="M60.6,4.24C62.91,7.1,62.34,12.62,59.29,16S51,19,47.82,15.34,45.19,6.61,49.09,4s9.19-2.63,11.51.23ZM4,15c2.6,3.91,7.65,4.44,11.34,1.27S19.41,7.88,16,4.81,7.11,1.2,4.25,3.5,1.44,11.09,4,15ZM38.65,62.34c2.84-2.15,2.36-6.13-1-8.62a8.9,8.9,0,0,0-11.28.73c-2.88,2.86-2.61,6.66.76,8.45s8.65,1.58,11.49-.56ZM25.44,1.76c-2.84,2.15-2.35,6.12,1,8.62A8.9,8.9,0,0,0,37.7,9.65c2.86-2.86,2.6-6.66-.77-8.44s-8.64-1.6-11.49.55Zm-.55,36.45A9.45,9.45,0,1,0,39.22,25.89,9.45,9.45,0,1,0,24.89,38.21ZM35.52,49.64A3.78,3.78,0,0,0,35,44.07a4.35,4.35,0,0,0-6,.43,3.73,3.73,0,0,0,.43,5.55,4.66,4.66,0,0,0,6-.41ZM28.59,14.45A3.79,3.79,0,0,0,29.06,20a4.37,4.37,0,0,0,6-.43,3.73,3.73,0,0,0-.45-5.55,4.64,4.64,0,0,0-6,.4Z"/>
      <path class="logo-color-light" d="M60.09,49.09c2.58,3.91,2.62,9.19-.23,11.51s-8.38,1.72-11.76-1.32-3-8.29.66-11.47,8.73-2.62,11.33,1.28Zm2.26-10.45c2.13-2.83,2.32-8.1.55-11.47s-5.58-3.65-8.46-.77a8.94,8.94,0,0,0-.73,11.28c2.5,3.33,6.48,3.82,8.64,1ZM48,41.18a4.82,4.82,0,1,0-7.33,6.27,5.08,5.08,0,0,0,6.9.6A5,5,0,0,0,48,41.18Zm1.68-5.66a4.67,4.67,0,0,0,.41-6,3.75,3.75,0,0,0-5.56-.44,4.37,4.37,0,0,0-.43,6,3.79,3.79,0,0,0,5.58.48Zm-1.6-19a5,5,0,0,0-6.87-.43A4.72,4.72,0,0,0,40.6,23a4.78,4.78,0,0,0,6.86.5,5.09,5.09,0,0,0,.59-6.91ZM1.76,25.45c-2.15,2.84-2.33,8.11-.55,11.48s5.58,3.63,8.45.77a8.93,8.93,0,0,0,.73-11.28c-2.51-3.33-6.48-3.82-8.63-1ZM3.51,59.86c2.31,2.86,7.59,2.8,11.5.23s4.44-7.65,1.27-11.33-8.4-4.07-11.47-.67S1.2,57,3.51,59.86ZM16.13,22.92a4.83,4.83,0,1,0,7.34-6.28,5.07,5.07,0,0,0-6.9-.58,5,5,0,0,0-.44,6.86Zm-1.67,5.67a4.64,4.64,0,0,0-.41,6,3.73,3.73,0,0,0,5.55.45,4.36,4.36,0,0,0,.44-6,3.78,3.78,0,0,0-5.58-.48Zm1.6,19a5,5,0,0,0,6.86.44,4.83,4.83,0,1,0-6.28-7.35,5.09,5.09,0,0,0-.58,6.91Z"/>
    </g>
  </g>
</svg>
